<svg preserveAspectRatio="none" width="100%" height="100%" overflow="visible" style="display: block;" viewBox="0 0 12 12" fill="none" xmlns="http://www.w3.org/2000/svg">
<g id="cart-check">
<path id="Vector" d="M4.49997 9.99999C4.49997 10.55 4.04997 11 3.49997 11C2.94997 11 2.49997 10.55 2.49997 9.99999C2.49997 9.44999 2.94997 8.99999 3.49997 8.99999C4.04997 8.99999 4.49997 9.44999 4.49997 9.99999ZM8.49997 8.99999C7.94997 8.99999 7.49997 9.44999 7.49997 9.99999C7.49997 10.55 7.94997 11 8.49997 11C9.04997 11 9.49997 10.55 9.49997 9.99999C9.49997 9.44999 9.04997 8.99999 8.49997 8.99999ZM3.59997 7.39999V7.34999L4.04997 6.49999H7.74997C8.09997 6.49999 8.44997 6.29999 8.59997 5.99999L10.55 2.49999L9.69997 1.99999L7.74997 5.49999H4.24997L2.14997 0.999989H0.499969V1.99999H1.49997L3.29997 5.79999L2.59997 6.99999C2.54997 7.14999 2.49997 7.29999 2.49997 7.49999C2.49997 8.04999 2.94997 8.49999 3.49997 8.49999H9.49997V7.49999H3.69997C3.64997 7.49999 3.59997 7.44999 3.59997 7.39999ZM8.99997 1.39999L8.29997 0.699989L5.89997 3.09999L4.59997 1.79999L3.89997 2.49999L5.89997 4.49999L8.99997 1.39999Z" fill="var(--fill-0, #85B287)"/>
</g>
</svg>
