<svg preserveAspectRatio="none" width="100%" height="100%" overflow="visible" style="display: block;" viewBox="0 0 12 12" fill="none" xmlns="http://www.w3.org/2000/svg">
<g id="cart-check">
<path id="Vector" d="M4.49997 10C4.49997 10.55 4.04997 11 3.49997 11C2.94997 11 2.49997 10.55 2.49997 10C2.49997 9.45 2.94997 9 3.49997 9C4.04997 9 4.49997 9.45 4.49997 10ZM8.49997 9C7.94997 9 7.49997 9.45 7.49997 10C7.49997 10.55 7.94997 11 8.49997 11C9.04997 11 9.49997 10.55 9.49997 10C9.49997 9.45 9.04997 9 8.49997 9ZM3.59997 7.4V7.35L4.04997 6.5H7.74997C8.09997 6.5 8.44997 6.3 8.59997 6L10.55 2.5L9.69997 2L7.74997 5.5H4.24997L2.14997 1H0.499969V2H1.49997L3.29997 5.8L2.59997 7C2.54997 7.15 2.49997 7.3 2.49997 7.5C2.49997 8.05 2.94997 8.5 3.49997 8.5H9.49997V7.5H3.69997C3.64997 7.5 3.59997 7.45 3.59997 7.4ZM8.99997 1.4L8.29997 0.700001L5.89997 3.1L4.59997 1.8L3.89997 2.5L5.89997 4.5L8.99997 1.4Z" fill="var(--fill-0, #00B009)"/>
</g>
</svg>
