<svg preserveAspectRatio="none" width="100%" height="100%" overflow="visible" style="display: block;" viewBox="0 0 12 12" fill="none" xmlns="http://www.w3.org/2000/svg">
<g id="heart-multiple" clip-path="url(#clip0_0_10)">
<path id="Vector" d="M6.75003 10C3.45003 6.95001 1.75003 5.40001 1.75003 3.55001C1.75003 2.00001 2.95003 0.800011 4.50003 0.800011C5.35003 0.800011 6.20003 1.20001 6.75003 1.85001C7.30003 1.20001 8.15003 0.800011 9.00003 0.800011C10.55 0.800011 11.75 2.00001 11.75 3.55001C11.75 5.45001 10.05 7.00001 6.75003 10ZM6.00003 10.55C2.70003 7.60001 0.750031 5.85001 0.750031 3.50001C0.750031 3.40001 0.750031 3.30001 0.750031 3.20001C0.450031 3.65001 0.250031 4.20001 0.250031 4.80001C0.250031 6.70001 1.95003 8.25001 5.25003 11.2L6.00003 10.55Z" fill="var(--fill-0, #FF4F6C)"/>
</g>
<defs>
<clipPath id="clip0_0_10">
<rect width="12" height="12" fill="white"/>
</clipPath>
</defs>
</svg>
